<svg width="300" height="107" viewBox="0 0 300 107" fill="none" xmlns="http://www.w3.org/2000/svg">
<path d="M174.5 105.5V106H174.832L174.961 105.694L174.5 105.5ZM153 105.5L152.554 105.275L152.187 106H153V105.5ZM178.5 96V95.5H178.168L178.039 95.806L178.5 96ZM206.5 96L206.942 95.7671L206.802 95.5H206.5V96ZM211.5 105.5L211.058 105.733L211.198 106H211.5V105.5ZM234 105.5V106H234.842L234.439 105.261L234 105.5ZM206.5 55L206.939 54.7609L206.797 54.5H206.5V55ZM178.5 55V54.5H178.192L178.054 54.7746L178.5 55ZM185.5 82L185.059 81.7639L184.665 82.5H185.5V82ZM193 68L193.441 67.7639L193 66.9412L192.559 67.7639L193 68ZM200.5 82V82.5H201.335L200.941 81.7639L200.5 82ZM174.5 105H153V106H174.5V105ZM178.039 95.806L174.039 105.306L174.961 105.694L178.961 96.194L178.039 95.806ZM206.5 95.5H178.5V96.5H206.5V95.5ZM211.942 105.267L206.942 95.7671L206.058 96.2329L211.058 105.733L211.942 105.267ZM234 105H211.5V106H234V105ZM206.061 55.2391L233.561 105.739L234.439 105.261L206.939 54.7609L206.061 55.2391ZM178.5 55.5H206.5V54.5H178.5V55.5ZM153.446 105.725L178.946 55.2254L178.054 54.7746L152.554 105.275L153.446 105.725ZM185.941 82.2361L193.441 68.2361L192.559 67.7639L185.059 81.7639L185.941 82.2361ZM200.5 81.5H185.5V82.5H200.5V81.5ZM192.559 68.2361L200.059 82.2361L200.941 81.7639L193.441 67.7639L192.559 68.2361Z" fill="#ECF270"/>
<path d="M71.9999 60.5L59.5 71C56 67.5 22 65 22 71C22 78.5 75 68.3 75 89.5C75 110.7 20 107.5 2 100.5L16 90C29.3333 93.3333 56 95 56 90C56 80 3.49994 94.5 3.49994 71C3.49994 50.5961 59.9999 53.5 71.9999 60.5Z" stroke="#ECF270"/>
<mask id="path-3-inside-1_21_603" fill="white">
<path fill-rule="evenodd" clip-rule="evenodd" d="M146 55H108H87V69V74V87V92V106H108H146V92H108V87H143V74H108V69H146V55Z"/>
</mask>
<path d="M146 55H147V54H146V55ZM87 55V54H86V55H87ZM87 106H86V107H87V106ZM146 106V107H147V106H146ZM146 92H147V91H146V92ZM108 92H107V93H108V92ZM108 87V86H107V87H108ZM143 87V88H144V87H143ZM143 74H144V73H143V74ZM108 74H107V75H108V74ZM108 69V68H107V69H108ZM146 69V70H147V69H146ZM108 56H146V54H108V56ZM87 56H108V54H87V56ZM88 69V55H86V69H88ZM88 74V69H86V74H88ZM88 87V74H86V87H88ZM88 92V87H86V92H88ZM88 106V92H86V106H88ZM108 105H87V107H108V105ZM146 105H108V107H146V105ZM145 92V106H147V92H145ZM108 93H146V91H108V93ZM107 87V92H109V87H107ZM108 88H143V86H108V88ZM144 87V74H142V87H144ZM143 73H108V75H143V73ZM107 69V74H109V69H107ZM146 68H108V70H146V68ZM145 55V69H147V55H145Z" fill="#ECF270" mask="url(#path-3-inside-1_21_603)"/>
<mask id="path-5-inside-2_21_603" fill="white">
<path fill-rule="evenodd" clip-rule="evenodd" d="M300 55H230V69H254V106H276V69H300V55Z"/>
</mask>
<path d="M230 55V54H229V55H230ZM300 55H301V54H300V55ZM230 69H229V70H230V69ZM254 69H255V68H254V69ZM254 106H253V107H254V106ZM276 106V107H277V106H276ZM276 69V68H275V69H276ZM300 69V70H301V69H300ZM230 56H300V54H230V56ZM231 69V55H229V69H231ZM254 68H230V70H254V68ZM255 106V69H253V106H255ZM276 105H254V107H276V105ZM275 69V106H277V69H275ZM300 68H276V70H300V68ZM299 55V69H301V55H299Z" fill="#ECF270" mask="url(#path-5-inside-2_21_603)"/>
<path fill-rule="evenodd" clip-rule="evenodd" d="M1.5 50V0H59C66 0 70 4 70 12C70 20 66 24 59 24C66 24 70 29 70 37C70 45 66 50 59 50H1.5ZM22 14.5H47C47.6667 14.5 49 15.3 49 16.5C49 17.7 48 18.5 47 18.5H22V14.5ZM22 31H47C47.6667 31 49 31.8 49 33C49 34.2 48 35 47 35H22V31Z" fill="#ECF270"/>
<path fill-rule="evenodd" clip-rule="evenodd" d="M74.5 50H96L100 40.5H128L133 50H155.5L128 0H100L74.5 50ZM114.5 12.5L107 26.5H122L114.5 12.5Z" fill="#ECF270"/>
<path fill-rule="evenodd" clip-rule="evenodd" d="M227.568 20H205.051C202.537 15.8689 197.054 13 191 13C182.716 13 175.5 18.3726 175.5 25C175.5 31.6274 182.716 37 191 37C197.054 37 202.537 34.1311 205.051 30H227.492C225.254 41.4396 215.313 50 191.5 50C162.5 50 155 38.5833 155 24.5C155 12 163.5 0 191.5 0C215.229 0 225.442 9.26891 227.568 20Z" fill="#ECF270"/>
<path fill-rule="evenodd" clip-rule="evenodd" d="M256 0H235V50H256V29L276.5 50H300L275 25L300 0H276.5L256 21V0Z" fill="#ECF270"/>
</svg>
