<svg width="500" height="102" viewBox="0 0 500 102" fill="none" xmlns="http://www.w3.org/2000/svg">
<path fill-rule="evenodd" clip-rule="evenodd" d="M0.73999 102V56H53.64C60.08 56 63.76 59.68 63.76 67.04C63.76 74.4 60.08 78.08 53.64 78.08C60.08 78.08 63.76 82.68 63.76 90.04C63.76 97.4 60.08 102 53.64 102H0.73999ZM19.6 69.34H42.6C43.2133 69.34 44.44 70.076 44.44 71.18C44.44 72.284 43.52 73.02 42.6 73.02H19.6V69.34ZM19.6 84.52H42.6C43.2133 84.52 44.44 85.256 44.44 86.36C44.44 87.464 43.52 88.2 42.6 88.2H19.6V84.52Z" fill="#E5FFFF"/>
<path fill-rule="evenodd" clip-rule="evenodd" d="M306 46V1L354.5 1.5C363 1.5 367 9.14 367 16.5C367 23.86 363 30.5 355 30.5L369.02 46H348.5L336 32H326V46H306ZM326 13.5H345.804C347 13.5 349 14 349 17C349 20 347 20.5 345.804 20.5H326V13.5Z" fill="#E5FFFF"/>
<path fill-rule="evenodd" clip-rule="evenodd" d="M54.24 46H74.02L77.7 37.26H103.46L108.06 46H128.76L103.46 0H77.7L54.24 46ZM91.04 11.5L84.14 24.38H97.94L91.04 11.5Z" fill="#E5FFFF"/>
<path fill-rule="evenodd" clip-rule="evenodd" d="M229.24 46H249.02L252.7 37.26H278.46L283.06 46H303.76L278.46 0H252.7L229.24 46ZM266.04 11.5L259.14 24.38H272.94L266.04 11.5Z" fill="#E5FFFF"/>
<path fill-rule="evenodd" clip-rule="evenodd" d="M129.24 102H149.02L152.7 93.26H178.46L183.06 102H203.76L178.46 56H152.7L129.24 102ZM166.04 67.5L159.14 80.38H172.94L166.04 67.5Z" fill="#E5FFFF"/>
<path fill-rule="evenodd" clip-rule="evenodd" d="M229.939 18.4H209.224C206.911 14.5994 201.866 11.96 196.297 11.96C188.675 11.96 182.037 16.9028 182.037 23C182.037 29.0972 188.675 34.04 196.297 34.04C201.866 34.04 206.911 31.4006 209.224 27.6H229.869C227.811 38.1244 218.665 46 196.757 46C170.077 46 163.177 35.4966 163.177 22.54C163.177 11.04 170.997 0 196.757 0C218.588 0 227.983 8.5274 229.939 18.4Z" fill="#E5FFFF"/>
<path fill-rule="evenodd" clip-rule="evenodd" d="M357.762 74.4H337.047C334.734 70.5994 329.689 67.96 324.12 67.96C316.498 67.96 309.86 72.9028 309.86 79C309.86 85.0972 316.498 90.04 324.12 90.04C329.689 90.04 334.734 87.4006 337.047 83.6H357.692C355.634 94.1244 346.488 102 324.58 102C297.9 102 291 91.4966 291 78.54C291 67.04 298.82 56 324.58 56C346.411 56 355.806 64.5274 357.762 74.4Z" fill="#E5FFFF"/>
<path fill-rule="evenodd" clip-rule="evenodd" d="M497.216 0H462.941H444V12.6275V17.1373V28.8627V33.3725V46H462.941H497.216V33.3725H462.941V28.8627H494.51V17.1373H462.941V12.6275H497.216V0Z" fill="#E5FFFF"/>
<path fill-rule="evenodd" clip-rule="evenodd" d="M499.108 56H464.834H445.892V68.6275V73.1373V84.8627V89.3725V102H464.834H499.108V89.3725H464.834V84.8627H496.402V73.1373H464.834V68.6275H499.108V56Z" fill="#E5FFFF"/>
<path fill-rule="evenodd" clip-rule="evenodd" d="M435.569 0H372.431V12.6275H394.078V46H413.922V12.6275H435.569V0Z" fill="#E5FFFF"/>
<path fill-rule="evenodd" clip-rule="evenodd" d="M364.267 56H384.711V73.3778H411.289V56H431.733V102H411.289V86.2858H384.711V102H364.267V56Z" fill="#E5FFFF"/>
<path fill-rule="evenodd" clip-rule="evenodd" d="M20 0H0V33V46H20H49V33H20V0Z" fill="#E5FFFF"/>
<path fill-rule="evenodd" clip-rule="evenodd" d="M93 56H73V89V102H93H122V89H93V56Z" fill="#E5FFFF"/>
<path fill-rule="evenodd" clip-rule="evenodd" d="M262 83.2821L231.247 55.9997L230.626 56.0171H211V101.828H230.762V74.2875L262 102L282 102V56H262V83.2821Z" fill="#E5FFFF"/>
</svg>
