<svg width="459" height="121" viewBox="0 0 459 121" fill="none" xmlns="http://www.w3.org/2000/svg">
<path fill-rule="evenodd" clip-rule="evenodd" d="M128 101H139.18L141.26 96.06H155.82L158.42 101H170.12L155.82 75H141.26L128 101ZM148.8 81.5L144.9 88.78H152.7L148.8 81.5Z" fill="#ECF270"/>
<path fill-rule="evenodd" clip-rule="evenodd" d="M320 101H331.18L333.26 96.06H347.82L350.42 101H362.12L347.82 75H333.26L320 101ZM340.8 81.5L336.9 88.78H344.7L340.8 81.5Z" fill="#ECF270"/>
<path d="M227.397 77.6923L220.719 83.0965C218.849 81.2951 200.685 80.0084 200.685 83.0965C200.685 86.9567 229 81.7069 229 92.6184C229 103.53 199.616 101.883 190 98.28L197.479 92.8757C204.603 94.5914 218.849 95.4492 218.849 92.8757C218.849 87.7288 190.801 95.1919 190.801 83.0965C190.801 72.5948 220.986 74.0894 227.397 77.6923Z" fill="#ECF270"/>
<path fill-rule="evenodd" clip-rule="evenodd" d="M457.422 20H420.167H399.578V33.7255V38.6274V51.3725V56.2745V70L420.167 70L457.422 70V56.2745H420.167V51.3725H454.48V38.6274H420.167V33.7255H457.422V20Z" fill="#ECF270"/>
<path fill-rule="evenodd" clip-rule="evenodd" d="M458.078 75H438.706H428V82.1373V84.6863V91.3137V93.8627V101L438.706 101L458.078 101V93.8627H438.706V91.3137H456.549V84.6863H438.706V82.1373H458.078V75Z" fill="#ECF270"/>
<path fill-rule="evenodd" clip-rule="evenodd" d="M263.078 75H243.706H233V82.1373V84.6863V91.3137V93.8627V101L243.706 101L263.078 101V93.8627H243.706V91.3137H261.549V84.6863H243.706V82.1373H263.078V75Z" fill="#ECF270"/>
<path fill-rule="evenodd" clip-rule="evenodd" d="M72.0784 75H52.7059H42V82.1373V84.6863V91.3137V93.8627V101L52.7059 101L72.0784 101V93.8627H52.7059V91.3137H70.549V84.6863H52.7059V82.1373H72.0784V75Z" fill="#ECF270"/>
<path fill-rule="evenodd" clip-rule="evenodd" d="M22.6327 20.1633H1V56.9388V71H22.6327L54 71V56.9388H22.6327V20.1633Z" fill="#ECF270"/>
<path fill-rule="evenodd" clip-rule="evenodd" d="M106.994 75H96V93.6904V100.837H106.994H122.936V93.6904H106.994V75Z" fill="#ECF270"/>
<path fill-rule="evenodd" clip-rule="evenodd" d="M171 50.5515L136.54 19.9809L135.5 20H114V71H136V39.9503L171 71L192.633 71V20.1633H171V50.5515Z" fill="#ECF270"/>
<path fill-rule="evenodd" clip-rule="evenodd" d="M411.72 101V101H423V75.0929H411.72V90.5791L393.753 75L393.21 75.0097L382 75.0097V101H393.471V85.1766L411.72 101Z" fill="#ECF270"/>
<path fill-rule="evenodd" clip-rule="evenodd" d="M287 101L280.28 89.7176V100.907H269V75H277.5H280.28L285.5 75L292.5 92.4999L299.5 75L304.72 75H307.5H316V100.907H304.72V89.7176L298 101L292.5 101L292.5 94.7295L292.5 101L287 101Z" fill="#ECF270"/>
<path d="M81 20.1633H102.633V71H81V20.1633Z" fill="#ECF270"/>
<path d="M287 20.1633H308.633V71H287V20.1633Z" fill="#ECF270"/>
<path d="M365.284 75H376.348V101H365.284V75Z" fill="#ECF270"/>
<path d="M256 20.1633H277.633L249.5 71H228L256 20.1633Z" fill="#ECF270"/>
<path d="M201 20.1633H222.633L249.5 71H228L201 20.1633Z" fill="#ECF270"/>
<path fill-rule="evenodd" clip-rule="evenodd" d="M391 20H321V34H345V71H367V34H391V20Z" fill="#ECF270"/>
<path fill-rule="evenodd" clip-rule="evenodd" d="M-8.74228e-08 99L0 101L20.9388 101L20.9388 93.6761L11 93.6761L11 82.3239L20.9388 82.3239L20.9388 75L-1.1365e-06 75L-1.00536e-06 78L-8.16356e-07 82.3239L-3.2014e-07 93.6761L-8.74228e-08 99ZM20.9388 101C34.0268 101 38 94.76 38 88.26C38 80.9367 34.4943 75 20.9388 75L20.9388 82.3239L20.9388 82.3239C25.8681 82.3239 27.1429 84.916 27.1429 88.1135C27.1429 90.9516 25.6981 93.6761 20.9388 93.6761L20.9388 93.6761L20.9388 101Z" fill="#ECF270"/>
<path d="M428.5 0H442L428.5 10.5H419.5L428.5 0Z" fill="#ECF270"/>
<path fill-rule="evenodd" clip-rule="evenodd" d="M71 20H55V35H71V20ZM63 46L71 35H59.5L53 46H63Z" fill="#ECF270"/>
</svg>
