<svg width="522" height="139" viewBox="0 0 522 139" fill="none" xmlns="http://www.w3.org/2000/svg">
<path fill-rule="evenodd" clip-rule="evenodd" d="M99.12 76C74.92 76 67 86.0467 67 98.44C67 109.44 75.36 120 99.12 120C123.76 120 131.24 109.44 131.24 98.44C131.24 86.0467 124.64 76 99.12 76ZM99.12 88.2791C89.8825 88.2791 86.8594 92.7183 86.8594 98.1944C86.8594 103.055 90.0505 107.721 99.12 107.721C108.525 107.721 111.381 103.055 111.381 98.1944C111.381 92.7183 108.861 88.2791 99.12 88.2791Z" fill="#ECF270"/>
<path fill-rule="evenodd" clip-rule="evenodd" d="M454.843 19H418.333H398.157V32.451V37.2549V49.7451V54.549V68H418.333H454.843V54.549H418.333V49.7451H451.961V37.2549H418.333V32.451H454.843V19Z" fill="#ECF270"/>
<path fill-rule="evenodd" clip-rule="evenodd" d="M521.843 19H485.333H465.157V32.451V37.2549V49.7451V54.549V68H485.333H521.843V54.549H485.333V49.7451H518.961V37.2549H485.333V32.451H521.843V19Z" fill="#ECF270"/>
<path fill-rule="evenodd" clip-rule="evenodd" d="M521.902 76H489.118H471V88.0784V92.3922V103.608V107.922V120H489.118H521.902V107.922H489.118V103.608H519.314V92.3922H489.118V88.0784H521.902V76Z" fill="#ECF270"/>
<path fill-rule="evenodd" clip-rule="evenodd" d="M21.6327 19H0V54.4468V68H21.6327L53 68V54.4468H21.6327V19Z" fill="#ECF270"/>
<path fill-rule="evenodd" clip-rule="evenodd" d="M159.129 76H139.704V107.83V120L187.296 120V107.83H159.129V76Z" fill="#ECF270"/>
<path fill-rule="evenodd" clip-rule="evenodd" d="M169.092 67.9998V68H190V18.8653H169.092V48.236L135.786 18.689L134.782 18.7074H114V68H135.263V37.9898L169.092 67.9998Z" fill="#ECF270"/>
<rect x="287" y="19" width="20" height="49" fill="#ECF270"/>
<rect x="200" y="76" width="18" height="44" fill="#ECF270"/>
<rect x="299" y="76" width="18" height="44" fill="#ECF270"/>
<rect x="81" y="19" width="20" height="49" fill="#ECF270"/>
<path fill-rule="evenodd" clip-rule="evenodd" d="M358.219 76C333.944 76 326 86.0777 326 98.5091C326 109.543 334.386 120.136 358.219 120.136C382.935 120.136 390.438 109.543 390.438 98.5091C390.438 86.0777 383.818 76 358.219 76ZM358.219 88.3169C348.953 88.3169 345.921 92.7698 345.921 98.2628C345.921 103.138 349.122 107.819 358.219 107.819C367.653 107.819 370.517 103.138 370.517 98.2628C370.517 92.7698 367.99 88.3169 358.219 88.3169Z" fill="#ECF270"/>
<rect x="375.232" y="106.352" width="22.774" height="13.7303" transform="rotate(51.8671 375.232 106.352)" fill="#ECF270"/>
<path d="M255 19H276.633L248.5 69.8367H227L255 19Z" fill="#ECF270"/>
<path d="M200 19H221.633L248.5 69.8367H227L200 19Z" fill="#ECF270"/>
<path fill-rule="evenodd" clip-rule="evenodd" d="M387.627 19H320.373V32.451H343.431V68H364.569V32.451H387.627V19Z" fill="#ECF270"/>
<path fill-rule="evenodd" clip-rule="evenodd" d="M290.493 76H230.101V88.0784H250.807V120H269.788V88.0784H290.493V76Z" fill="#ECF270"/>
<rect x="444.04" y="76" width="18.0145" height="24.3196" fill="#ECF270"/>
<path d="M398.103 76H416.117V100.32H398.103V76Z" fill="#ECF270"/>
<path fill-rule="evenodd" clip-rule="evenodd" d="M398.103 100.32C398.103 115.521 413.451 120.136 429.439 120.136C447.452 120.136 462.054 116.064 462.054 100.32L444.04 100.32C444.04 106.045 437.664 107.525 429.799 107.525C422.818 107.525 416.117 105.847 416.117 100.32L398.103 100.32Z" fill="#ECF270"/>
<path fill-rule="evenodd" clip-rule="evenodd" d="M19 76H2V80.1539V88.0001V100V109.231V112V122H19V112H34.5102V100H19.079V88.0001H34.5102V76H19ZM61 94.3601C61.0001 103.36 54.8312 112 34.5103 112V100H34.5104C41.8998 100 44.143 97.12 44.143 94.12C44.143 90.74 42.1637 88 34.5104 88H34.5103V76.0001C55.5569 76.0001 61 84.2201 61 94.3601Z" fill="#ECF270"/>
<path fill-rule="evenodd" clip-rule="evenodd" d="M70 22H54V37H58.5L52 48H62L70 37V22Z" fill="#ECF270"/>
<path d="M426 0H439.5L426 10.5H417L426 0Z" fill="#ECF270"/>
</svg>
