<svg width="481" height="142" viewBox="0 0 481 142" fill="none" xmlns="http://www.w3.org/2000/svg">
<path fill-rule="evenodd" clip-rule="evenodd" d="M91.9722 80C69.4222 80 62.0422 89.3617 62.0422 100.91C62.0422 111.16 69.8322 121 91.9722 121C114.932 121 121.902 111.16 121.902 100.91C121.902 89.3617 115.752 80 91.9722 80ZM91.9722 91.4419C83.3646 91.4419 80.5476 95.5785 80.5476 100.681C80.5476 105.21 83.5211 109.558 91.9722 109.558C100.736 109.558 103.397 105.21 103.397 100.681C103.397 95.5785 101.049 91.4419 91.9722 91.4419Z" fill="#ECF270"/>
<path fill-rule="evenodd" clip-rule="evenodd" d="M480.688 20.6765H440.957H419V35.3143V40.5421V54.1344V59.3622V74H480.688V59.3622H440.957V54.1344H477.551V40.5421H440.957V35.3143H480.688V20.6765Z" fill="#ECF270"/>
<path fill-rule="evenodd" clip-rule="evenodd" d="M479.09 80H448.756H431.993V91.1758V95.1671V105.545V109.536V120.712L448.756 120.712L479.09 120.712V109.536H448.756V105.545H476.696V95.1671H448.756V91.1758H479.09V80Z" fill="#ECF270"/>
<path fill-rule="evenodd" clip-rule="evenodd" d="M23.2568 21H0V59.1081V73.6789L56.9792 73.6789V59.1081H23.2568V21Z" fill="#ECF270"/>
<path fill-rule="evenodd" clip-rule="evenodd" d="M146.101 80H128V109.66V121V121H172.347V109.66H146.101V80Z" fill="#ECF270"/>
<path fill-rule="evenodd" clip-rule="evenodd" d="M179.442 73.9998V74.0001H201.915V21.1895H179.442V52.7573L143.645 21L142.566 21.0198H120.229V74H143.084V41.7447L179.442 73.9998Z" fill="#ECF270"/>
<rect x="303" y="21" width="21" height="53" fill="#ECF270"/>
<rect x="181" y="80" width="18" height="41" fill="#ECF270"/>
<rect x="277" y="80" width="17" height="41" fill="#ECF270"/>
<rect x="84" y="21" width="22" height="53" fill="#ECF270"/>
<path fill-rule="evenodd" clip-rule="evenodd" d="M329.068 80C306.516 80 299.136 89.3623 299.136 100.911C299.136 111.162 306.926 121.003 329.068 121.003C352.029 121.003 359 111.162 359 100.911C359 89.3623 352.849 80 329.068 80ZM329.068 91.4426C320.459 91.4426 317.642 95.5795 317.642 100.683C317.642 105.212 320.616 109.56 329.068 109.56C337.832 109.56 340.493 105.212 340.493 100.683C340.493 95.5795 338.145 91.4426 329.068 91.4426Z" fill="#ECF270"/>
<rect x="344.873" y="108.197" width="21.1574" height="12.7557" transform="rotate(51.8671 344.873 108.197)" fill="#ECF270"/>
<path d="M271.235 21.321H293.652L264.5 74H242.221L271.235 21.321Z" fill="#ECF270"/>
<path d="M214.242 21.321H236.659L264.5 74H242.221L214.242 21.321Z" fill="#ECF270"/>
<path fill-rule="evenodd" clip-rule="evenodd" d="M408.578 21.321H336.274V35.7819H361.064V74H383.788V35.7819H408.578V21.321Z" fill="#ECF270"/>
<path fill-rule="evenodd" clip-rule="evenodd" d="M264.254 80H207.98V91.2549H227.274V121H244.96V91.2549H264.254V80Z" fill="#ECF270"/>
<rect x="407.673" y="80" width="16.7347" height="22.5918" fill="#ECF270"/>
<path d="M365 80H381.735V102.592H365V80Z" fill="#ECF270"/>
<path fill-rule="evenodd" clip-rule="evenodd" d="M365 102.592C365 116.713 379.258 121 394.11 121C410.843 121 424.408 117.217 424.408 102.592L407.673 102.592C407.673 107.91 401.751 109.286 394.445 109.286C387.96 109.286 381.735 107.727 381.735 102.592H365Z" fill="#ECF270"/>
<path fill-rule="evenodd" clip-rule="evenodd" d="M2 80V80.9111V83.6793V90.629V101.258V109.434V111.887V121H17.4889V111.887H30.6893V101.258H17.4889V90.629H30.6893V80H2ZM30.6894 111.887C48.622 111.887 54.0658 104.234 54.0658 96.2623C54.0658 87.2809 49.2624 80.0001 30.6894 80L30.6894 90.6289H30.6895C37.4433 90.6289 39.19 93.0558 39.19 96.0496C39.19 98.7069 37.2104 101.258 30.6895 101.258H30.6894V111.887Z" fill="#ECF270"/>
<path fill-rule="evenodd" clip-rule="evenodd" d="M74.3514 21H57.1501V37.1262H61.988L55 48.952H65.7508L74.3514 37.1262L74.3514 37.1262H74.3514V21Z" fill="#ECF270"/>
<path d="M449.244 0H464.844L449.244 11H438.844L449.244 0Z" fill="#ECF270"/>
</svg>
