<svg width="450" height="112" viewBox="0 0 450 112" fill="none" xmlns="http://www.w3.org/2000/svg">
<path fill-rule="evenodd" clip-rule="evenodd" d="M0.669983 112H19.16L22.6 103.83H46.68L50.98 112H70.33L46.68 69H22.6L0.669983 112ZM35.07 79.75L28.62 91.79H41.52L35.07 79.75Z" fill="#ECF270"/>
<path fill-rule="evenodd" clip-rule="evenodd" d="M152 112H170.49L173.93 103.83H198.01L202.31 112H221.66L198.01 69H173.93L152 112ZM186.4 79.75L179.95 91.79H192.85L186.4 79.75Z" fill="#ECF270"/>
<path fill-rule="evenodd" clip-rule="evenodd" d="M311.408 86.2H292.044C289.882 82.6473 285.166 80.18 279.96 80.18C272.835 80.18 266.63 84.8004 266.63 90.5C266.63 96.1996 272.835 100.82 279.96 100.82C285.166 100.82 289.882 98.3527 292.044 94.8H311.343C309.418 104.638 300.869 112 280.39 112C255.45 112 249 102.182 249 90.07C249 79.32 256.31 69 280.39 69C300.797 69 309.58 76.9713 311.408 86.2Z" fill="#ECF270"/>
<path fill-rule="evenodd" clip-rule="evenodd" d="M347.39 69C323.74 69 316 78.8184 316 90.93C316 101.68 324.17 112 347.39 112C371.47 112 378.78 101.68 378.78 90.93C378.78 78.8184 372.33 69 347.39 69ZM347.39 81C338.362 81 335.408 85.3383 335.408 90.69C335.408 95.44 338.527 100 347.39 100C356.582 100 359.372 95.44 359.372 90.69C359.372 85.3384 356.91 81 347.39 81Z" fill="#ECF270"/>
<path fill-rule="evenodd" clip-rule="evenodd" d="M126 0H88.6441H68V13.451V18.2549V30.7451V35.549V49H88.6441H126V35.549H88.6441V30.7451H123.051V18.2549H88.6441V13.451H126V0Z" fill="#ECF270"/>
<path fill-rule="evenodd" clip-rule="evenodd" d="M23.6327 0H2V35.4468V49H23.6327L55 49V35.4468H23.6327V0Z" fill="#ECF270"/>
<path fill-rule="evenodd" clip-rule="evenodd" d="M120.298 69H102V100.106V112H120.298H146.83V100.106H120.298V69Z" fill="#ECF270"/>
<path fill-rule="evenodd" clip-rule="evenodd" d="M430.904 112L449.137 112V69.1537H430.904V94.7654L401.861 69L400.984 69.0161H382.863V112H401.405V85.8306L430.904 112V112L430.904 112Z" fill="#ECF270"/>
<path fill-rule="evenodd" clip-rule="evenodd" d="M411.857 35.5196L449.019 14.0459L448.996 13.398L448.996 -1.01347e-09L387 -2.71094e-06L387 13.7093L424.744 13.7093L387 35.5196L387 49L448.797 49L448.797 35.5196L411.857 35.5196Z" fill="#ECF270"/>
<rect x="351" width="20" height="49" fill="#ECF270"/>
<path fill-rule="evenodd" clip-rule="evenodd" d="M214.39 0C187.44 -3.21818e-06 178.62 11.1884 178.62 24.99C178.62 37.24 187.93 49 214.39 49C241.83 49 250.16 37.24 250.16 24.99C250.16 11.1884 242.81 0 214.39 0ZM214.39 13.6744C204.103 13.6744 200.736 18.6181 200.736 24.7165C200.736 30.1293 204.29 35.3256 214.39 35.3256C224.864 35.3256 228.044 30.1293 228.044 24.7165C228.044 18.6181 225.238 13.6744 214.39 13.6744Z" fill="#ECF270"/>
<rect x="233.278" y="33.6971" width="20" height="15.2436" transform="rotate(51.8671 233.278 33.6971)" fill="#ECF270"/>
<rect x="313" width="20" height="27" fill="#ECF270"/>
<path d="M262 0H282V27H262V0Z" fill="#ECF270"/>
<path fill-rule="evenodd" clip-rule="evenodd" d="M262 27C262 43.8767 279.04 49 296.79 49C316.788 49 333 44.4795 333 27L313 27C313 33.3562 305.922 35 297.19 35C289.44 35 282 33.137 282 27L262 27Z" fill="#ECF270"/>
<path d="M36.2 54H23L36.2 63H45L36.2 54Z" fill="#ECF270"/>
</svg>
