<svg width="725" height="102" viewBox="0 0 725 102" fill="none" xmlns="http://www.w3.org/2000/svg">
<path fill-rule="evenodd" clip-rule="evenodd" d="M201.785 102H219.415L222.695 94.21H245.655L249.755 102H268.205L245.655 61H222.695L201.785 102ZM234.585 71.25L228.435 82.73H240.735L234.585 71.25Z" fill="#ECF270"/>
<path fill-rule="evenodd" clip-rule="evenodd" d="M506.554 102H524.184L527.464 94.21H550.424L554.524 102H572.974L550.424 61H527.464L506.554 102ZM539.354 71.25L533.204 82.73H545.504L539.354 71.25Z" fill="#ECF270"/>
<path d="M360.493 65.2455L350.048 73.7676C347.123 70.9269 318.712 68.8978 318.712 73.7676C318.712 79.8549 363 71.5762 363 88.7828C363 105.989 317.041 103.392 302 97.7108L313.699 89.1887C324.84 91.8941 347.123 93.2468 347.123 89.1887C347.123 81.0723 303.253 92.841 303.253 73.7676C303.253 57.2071 350.466 59.564 360.493 65.2455Z" fill="#ECF270"/>
<path fill-rule="evenodd" clip-rule="evenodd" d="M724.293 61H693.744H676.862V72.2549V76.2745V86.7255V90.7451V102L693.744 102L724.293 102V90.7451H693.744V86.7255H721.882V76.2745H693.744V72.2549H724.293V61Z" fill="#ECF270"/>
<path fill-rule="evenodd" clip-rule="evenodd" d="M416.793 61H386.244H369.362V72.2549V76.2745V86.7255V90.7451V102L386.244 102L416.793 102V90.7451H386.244V86.7255H414.382V76.2745H386.244V72.2549H416.793V61Z" fill="#ECF270"/>
<path fill-rule="evenodd" clip-rule="evenodd" d="M114.662 61H84.1131H67.2308V72.2549V76.2745V86.7255V90.7451V102L84.1131 102L114.662 102V90.7451H84.1131V86.7255H112.25V76.2745H84.1131V72.2549H114.662V61Z" fill="#ECF270"/>
<path fill-rule="evenodd" clip-rule="evenodd" d="M124 0H86H65V14V19V32V37V51H86H124V37H86V32H121V19H86V14H124V0Z" fill="#ECF270"/>
<path fill-rule="evenodd" clip-rule="evenodd" d="M563 0H525H504V14V19V32V37V51H525H563V37H525V32H560V19H525V14H563V0Z" fill="#ECF270"/>
<path fill-rule="evenodd" clip-rule="evenodd" d="M23.4236 0H0.90802V36.8936V51V51H56.0713V36.8936H23.4236V0Z" fill="#ECF270"/>
<path fill-rule="evenodd" clip-rule="evenodd" d="M169.101 61H151V90.6596V102V102H195.347V90.6596H169.101V61Z" fill="#ECF270"/>
<path fill-rule="evenodd" clip-rule="evenodd" d="M651.19 85.5672L622.856 61L622.003 61.0153H604.323V102H622.412V77.0478L651.19 102L668.977 102V61.1465H651.19V85.5672Z" fill="#ECF270"/>
<path fill-rule="evenodd" clip-rule="evenodd" d="M454.516 102L443.918 84.2085V101.853H426.131V60.9998H443.918V60.9999L452.15 60.9999L463.189 88.5961L463.189 102L454.516 102ZM463.189 88.5961L474.227 60.9999L482.459 60.9999V60.9998H500.246V101.853H482.459V84.2085L471.862 102L463.189 102L463.189 88.5961Z" fill="#ECF270"/>
<path d="M577.964 61H595.411V102H577.964V61Z" fill="#ECF270"/>
<path fill-rule="evenodd" clip-rule="evenodd" d="M644 0H574V14H598V51H620V14H644V0Z" fill="#ECF270"/>
<path d="M203.918 5.3845L191.075 16.1931C187.479 12.5902 152.548 10.0167 152.548 16.1931C152.548 23.9135 207 13.4137 207 35.2368C207 57.0598 150.493 53.7658 132 46.56L146.384 35.7515C160.082 39.1828 187.479 40.8984 187.479 35.7515C187.479 25.4576 133.541 40.3837 133.541 16.1931C133.541 -4.81048 191.589 -1.82122 203.918 5.3845Z" fill="#ECF270"/>
<path d="M322 5.23078L309.5 15.7308C306 12.2308 272 9.73077 272 15.7308C272 23.2308 325 13.0308 325 34.2308C325 55.4308 270 52.2308 252 45.2308L266 34.7308C279.333 38.0641 306 39.7308 306 34.7308C306 24.7308 253.5 39.2308 253.5 15.7308C253.5 -4.67315 310 -1.76922 322 5.23078Z" fill="#ECF270"/>
<path d="M721 5.28095L708.5 15.8817C705 12.3481 671 9.82412 671 15.8817C671 23.4536 724 13.1558 724 34.5591C724 55.9625 669 52.7318 651 45.6647L665 35.0639C678.333 38.4292 705 40.1119 705 35.0639C705 24.968 652.5 39.6071 652.5 15.8817C652.5 -4.71797 709 -1.78619 721 5.28095Z" fill="#ECF270"/>
<rect x="388.837" width="20.8163" height="28.1021" fill="#ECF270"/>
<path d="M335.755 0H356.571V28.1021H335.755V0Z" fill="#ECF270"/>
<path fill-rule="evenodd" clip-rule="evenodd" d="M335.755 28.102C335.755 45.6676 353.491 51 371.965 51C392.78 51 409.653 46.2949 409.653 28.102L388.837 28.102C388.837 34.7176 381.469 36.4285 372.381 36.4285C364.315 36.4285 356.571 34.4895 356.571 28.102H335.755Z" fill="#ECF270"/>
<rect x="471.082" width="20.8163" height="28.1021" fill="#ECF270"/>
<path fill-rule="evenodd" clip-rule="evenodd" d="M418 28.102C418 45.6676 435.736 51 454.21 51C475.025 51 491.898 46.2949 491.898 28.102L471.082 28.102C471.081 34.7176 463.714 36.4285 454.626 36.4285C446.56 36.4285 438.816 34.4895 438.816 28.102H418Z" fill="#ECF270"/>
<path fill-rule="evenodd" clip-rule="evenodd" d="M1 98.8462L1 102L34.0188 102L34.0188 90.4507L18.3462 90.4507L18.3462 72.5493L34.0188 72.5493L34.0188 61L0.999998 61L0.999998 65.7308L0.999999 72.5493L0.999999 90.4507L1 98.8462ZM34.0189 102C54.6577 102 60.9231 92.16 60.923 81.91C60.923 70.3617 55.3948 61 34.0189 61L34.0189 72.5493L34.0189 72.5493C41.792 72.5493 43.8023 76.6368 43.8023 81.679C43.8023 86.1543 41.524 90.4507 34.0189 90.4507L34.0189 90.4507L34.0189 102Z" fill="#ECF270"/>
</svg>
